name rise36.2859peak64.2979fall75.1499.mot
datacolumns 19
datarows 18
range 5.63830900000000 5.66664700000000
endheader
time	ground_force1_vx	ground_force1_vy	ground_force1_vz	ground_force1_px	ground_force1_py	ground_force1_pz	ground_force2_vx	ground_force2_vy	ground_force2_vz	ground_force2_px	ground_force2_py	ground_force2_pz	ground_torque1_x	ground_torque1_y	ground_torque1_z	ground_torque2_x	ground_torque2_y	ground_torque2_z	
5.63830900000000	64.86308400000000	775.36495000000002	61.41885400000000	0.45390900000000	0.00000000000000	0.08955000000000	0.00000000000000	0.00000000000000	0.00000000000000	0.00000000000000	0.00000000000000	0.00000000000000	0.00000000000000	41.67656600000000	0.00000000000000	0.00000000000000	0.00000000000000	0.00000000000000	
5.63997500000000	64.30995600000000	777.52058299999999	61.51498900000000	0.45224100000000	0.00000000000000	0.08957100000000	0.00000000000000	0.00000000000000	0.00000000000000	0.00000000000000	0.00000000000000	0.00000000000000	0.00000000000000	41.68147300000000	0.00000000000000	0.00000000000000	0.00000000000000	0.00000000000000	
5.64164600000000	63.75905700000000	779.58026299999995	61.60574900000000	0.45057600000000	0.00000000000000	0.08959200000000	0.00000000000000	0.00000000000000	0.00000000000000	0.00000000000000	0.00000000000000	0.00000000000000	0.00000000000000	41.68273600000000	0.00000000000000	0.00000000000000	0.00000000000000	0.00000000000000	
5.64331500000000	63.21052300000000	781.54081699999995	61.69062700000000	0.44891800000000	0.00000000000000	0.08961100000000	0.00000000000000	0.00000000000000	0.00000000000000	0.00000000000000	0.00000000000000	0.00000000000000	0.00000000000000	41.68009900000000	0.00000000000000	0.00000000000000	0.00000000000000	0.00000000000000	
5.64497900000000	62.66443400000000	783.39912500000003	61.76907900000000	0.44726800000000	0.00000000000000	0.08963000000000	0.00000000000000	0.00000000000000	0.00000000000000	0.00000000000000	0.00000000000000	0.00000000000000	0.00000000000000	41.67327600000000	0.00000000000000	0.00000000000000	0.00000000000000	0.00000000000000	
5.64664600000000	62.12082100000000	785.15213300000005	61.84052500000000	0.44562900000000	0.00000000000000	0.08964700000000	0.00000000000000	0.00000000000000	0.00000000000000	0.00000000000000	0.00000000000000	0.00000000000000	0.00000000000000	41.66195000000000	0.00000000000000	0.00000000000000	0.00000000000000	0.00000000000000	
5.64831300000000	61.57966500000000	786.79687999999999	61.90435700000000	0.44400100000000	0.00000000000000	0.08966300000000	0.00000000000000	0.00000000000000	0.00000000000000	0.00000000000000	0.00000000000000	0.00000000000000	0.00000000000000	41.64577800000000	0.00000000000000	0.00000000000000	0.00000000000000	0.00000000000000	
5.64998100000000	61.04091000000000	788.33051399999999	61.95994800000000	0.44238800000000	0.00000000000000	0.08967700000000	0.00000000000000	0.00000000000000	0.00000000000000	0.00000000000000	0.00000000000000	0.00000000000000	0.00000000000000	41.62440200000000	0.00000000000000	0.00000000000000	0.00000000000000	0.00000000000000	
5.65164600000000	60.50445500000000	789.75031100000001	62.00665500000000	0.44079000000000	0.00000000000000	0.08968900000000	0.00000000000000	0.00000000000000	0.00000000000000	0.00000000000000	0.00000000000000	0.00000000000000	0.00000000000000	41.59744500000000	0.00000000000000	0.00000000000000	0.00000000000000	0.00000000000000	
5.65331300000000	59.97016800000000	791.05369499999995	62.04382800000000	0.43920900000000	0.00000000000000	0.08969900000000	0.00000000000000	0.00000000000000	0.00000000000000	0.00000000000000	0.00000000000000	0.00000000000000	0.00000000000000	41.56452300000000	0.00000000000000	0.00000000000000	0.00000000000000	0.00000000000000	
5.65497600000000	59.43788800000000	792.23825499999998	62.07081300000000	0.43764800000000	0.00000000000000	0.08970700000000	0.00000000000000	0.00000000000000	0.00000000000000	0.00000000000000	0.00000000000000	0.00000000000000	0.00000000000000	41.52524400000000	0.00000000000000	0.00000000000000	0.00000000000000	0.00000000000000	
5.65664200000000	58.90742400000000	793.30176100000006	62.08696400000000	0.43610600000000	0.00000000000000	0.08971300000000	0.00000000000000	0.00000000000000	0.00000000000000	0.00000000000000	0.00000000000000	0.00000000000000	0.00000000000000	41.47921800000000	0.00000000000000	0.00000000000000	0.00000000000000	0.00000000000000	
5.65830700000000	58.37856500000000	794.24217999999996	62.09164200000000	0.43458700000000	0.00000000000000	0.08971700000000	0.00000000000000	0.00000000000000	0.00000000000000	0.00000000000000	0.00000000000000	0.00000000000000	0.00000000000000	41.42605800000000	0.00000000000000	0.00000000000000	0.00000000000000	0.00000000000000	
5.65997900000000	57.85108400000000	795.05769299999997	62.08422700000000	0.43309000000000	0.00000000000000	0.08971800000000	0.00000000000000	0.00000000000000	0.00000000000000	0.00000000000000	0.00000000000000	0.00000000000000	0.00000000000000	41.36538400000000	0.00000000000000	0.00000000000000	0.00000000000000	0.00000000000000	
5.66164900000000	57.32473700000000	795.74670500000002	62.06412000000000	0.43161700000000	0.00000000000000	0.08971600000000	0.00000000000000	0.00000000000000	0.00000000000000	0.00000000000000	0.00000000000000	0.00000000000000	0.00000000000000	41.29683000000000	0.00000000000000	0.00000000000000	0.00000000000000	0.00000000000000	
5.66331000000000	56.79927300000000	796.30786100000000	62.03075200000000	0.43016900000000	0.00000000000000	0.08971200000000	0.00000000000000	0.00000000000000	0.00000000000000	0.00000000000000	0.00000000000000	0.00000000000000	0.00000000000000	41.22004500000000	0.00000000000000	0.00000000000000	0.00000000000000	0.00000000000000	
5.66498000000000	56.27443600000000	796.74005799999998	61.98358500000000	0.42874800000000	0.00000000000000	0.08970400000000	0.00000000000000	0.00000000000000	0.00000000000000	0.00000000000000	0.00000000000000	0.00000000000000	0.00000000000000	41.13469800000000	0.00000000000000	0.00000000000000	0.00000000000000	0.00000000000000	
5.66664700000000	55.74996700000000	797.04245200000003	61.92212000000000	0.42735300000000	0.00000000000000	0.08969400000000	0.00000000000000	0.00000000000000	0.00000000000000	0.00000000000000	0.00000000000000	0.00000000000000	0.00000000000000	41.04048200000000	0.00000000000000	0.00000000000000	0.00000000000000	0.00000000000000	
